<mxfile host="app.diagrams.net" modified="2023-05-25T03:38:01.938Z" agent="Mozilla/5.0 (Windows NT 10.0; WOW64) AppleWebKit/537.36 (KHTML, like Gecko) Chrome/108.0.5359.95 Safari/537.36" version="21.3.3" etag="Gzqd7VKcVkPk0VWAP7KJ" type="github">
  <diagram name="第 1 页" id="Yui-hNoCb9Em9-Gm-w5E">
    <mxGraphModel>
      <root>
        <mxCell id="0" />
        <mxCell id="1" parent="0" />
      </root>
    </mxGraphModel>
  </diagram>
</mxfile>
